# xmcd CD database file
#
# Track frame offsets:
#	150
#	7062
#	51042
#	81025
#	99365
#	119817
#	136770
#	160982
#
# Disc length: 2371 seconds
#
# Revision: 0
# Processed by: cddbd v1.5PL3 Copyright (c) Steve Scherf et al.
# Submitted via: CDex 1.50beta10
#
DISCID=61094108
DTITLE=難波弘之 - Party Tonight
DYEAR=1981
DGENRE=Progressive Rock
TTITLE0=オーヴァーチュア
TTITLE1=パーマーエルドリッチの三つの聖痕(1.EYES 2.HANDS 3.TEETH)
TTITLE2=夢中楼閣
TTITLE3=パーティ・トゥナイト（地球を遠く離れて）
TTITLE4=ロスト・ラヴ（雨の宇宙空港）
TTITLE5=渇きの海
TTITLE6=シルバーグレイの街
TTITLE7=Key Station
EXTD=YEAR: 1981
EXTT0=
EXTT1=
EXTT2=
EXTT3=
EXTT4=
EXTT5=
EXTT6=
EXTT7=
PLAYORDER=
